<?xml version="1.0" standalone="no"?>
<!DOCTYPE svg PUBLIC "-//W3C//DTD SVG 20010904//EN"
 "http://www.w3.org/TR/2001/REC-SVG-20010904/DTD/svg10.dtd">
<svg version="1.0" xmlns="http://www.w3.org/2000/svg"
 width="430.000000pt" height="430.000000pt" viewBox="0 0 430.000000 430.000000"
 preserveAspectRatio="xMidYMid meet">
<metadata>
Created by potrace 1.14, written by Peter Selinger 2001-2017
</metadata>
<g transform="translate(0.000000,430.000000) scale(0.100000,-0.100000)"
fill="#000000" stroke="none">
<path d="M2087 3144 c-1 -1 -31 -5 -67 -8 -248 -25 -517 -140 -723 -308 -76
-62 -172 -159 -212 -213 -17 -22 -32 -42 -35 -45 -43 -41 -113 -202 -130 -299
-65 -371 284 -762 920 -1034 121 -51 319 -119 403 -138 32 -7 60 -15 62 -19 7
-12 -15 -80 -27 -80 -9 0 -8 27 3 55 2 6 0 12 -6 13 -5 2 -15 8 -21 13 -26 21
-65 -24 -56 -64 5 -23 38 -18 34 6 -2 9 2 25 8 35 9 14 9 13 5 -8 -4 -15 0
-33 9 -45 13 -17 18 -18 35 -7 16 9 21 9 21 0 0 -7 13 3 30 22 23 28 29 31 30
16 0 -10 -8 -25 -17 -32 -12 -9 -14 -13 -5 -14 7 0 10 -5 7 -10 -4 -6 -11 -8
-16 -5 -5 4 -9 2 -9 -4 0 -24 25 -22 46 4 16 20 21 37 18 61 -3 27 -1 32 11
28 9 -4 13 -15 11 -29 -5 -29 16 -61 33 -50 7 4 21 20 30 37 l18 29 6 -29 c5
-27 10 -29 46 -29 26 0 45 6 53 16 10 13 10 14 -2 3 -20 -18 -29 -15 -23 8 3
11 9 20 13 20 11 0 31 -26 24 -33 -9 -9 16 -47 31 -47 15 0 40 38 32 47 -3 2
-8 -5 -12 -16 -12 -39 -36 -19 -27 24 3 18 10 20 54 19 35 -1 54 -7 60 -18 9
-16 38 -12 38 6 0 5 -4 6 -10 3 -5 -3 -10 -2 -10 4 0 5 9 9 20 8 26 -2 25 -19
-1 -43 -29 -26 -50 -70 -43 -88 16 -41 63 4 85 79 14 46 29 60 29 27 0 -25 7
-31 29 -25 22 6 45 49 31 58 -6 4 -10 -3 -10 -14 0 -25 -16 -36 -24 -16 -3 8
-1 15 5 15 6 0 8 4 4 10 -3 5 8 16 26 25 29 16 30 15 21 -1 -6 -11 -6 -27 0
-46 11 -30 26 -36 46 -16 9 9 12 9 12 0 0 -7 6 -12 13 -12 15 0 47 31 47 46 0
4 -7 -2 -16 -14 -23 -33 -33 -27 -24 15 16 68 -12 69 -30 2 -13 -49 -26 -43
-21 9 2 28 11 44 37 65 60 50 69 77 65 207 -7 201 -6 343 2 400 17 124 63 254
154 434 70 141 81 190 48 226 -20 22 -65 39 -110 41 -33 2 -161 -9 -185 -16
-8 -3 -33 -7 -55 -10 -22 -2 -59 -7 -83 -11 l-43 -6 6 28 c3 16 7 76 9 134 7
190 -38 315 -153 430 -78 77 -141 111 -218 116 -31 2 -61 8 -67 13 -21 17
-132 41 -209 44 -43 2 -78 2 -80 1z m273 -2083 c0 -5 -6 -14 -14 -21 -12 -9
-15 -8 -13 9 1 20 27 31 27 12z m117 -19 c-2 -4 -7 -15 -10 -25 -4 -10 -11
-15 -17 -12 -6 4 -7 12 -3 18 4 7 8 15 9 20 1 4 2 10 3 13 0 3 6 2 11 -1 6 -4
9 -9 7 -13z m71 -25 c-7 -14 -13 -17 -16 -9 -6 19 6 44 18 37 7 -4 6 -14 -2
-28z m240 -73 c-13 -27 -38 -45 -38 -27 0 4 10 24 22 43 24 39 37 26 16 -16z"/>
<path d="M1201 1211 c-22 -14 -41 -63 -51 -130 -5 -39 -16 -70 -25 -77 -8 -6
-15 -16 -15 -23 0 -17 38 -13 48 4 7 13 14 14 37 5 15 -6 30 -9 32 -6 2 2 -9
8 -25 14 -29 10 -29 10 -18 55 6 24 17 52 25 61 10 11 10 16 2 16 -14 0 -4 43
10 48 11 5 12 29 1 36 -4 2 -14 1 -21 -3z"/>
<path d="M1221 1154 c0 -11 3 -14 6 -6 3 7 2 16 -1 19 -3 4 -6 -2 -5 -13z"/>
<path d="M1958 1091 c-9 -12 -19 -16 -33 -11 -31 11 -52 1 -65 -30 -17 -41
-49 -68 -59 -51 -10 16 -3 49 12 58 6 4 8 -2 5 -15 -4 -12 -2 -20 3 -17 13 9
7 55 -8 55 -19 0 -45 -46 -41 -72 4 -31 35 -35 63 -8 16 15 24 18 27 9 7 -21
37 -3 31 19 -2 11 1 23 8 28 9 5 10 2 6 -10 -7 -18 8 -56 21 -56 4 0 8 14 9
31 3 38 10 46 25 31 9 -9 9 -15 0 -24 -7 -7 -12 -17 -12 -22 0 -6 5 -3 11 7
16 26 27 20 24 -14 -3 -33 18 -50 38 -30 9 9 8 11 -6 5 -15 -5 -16 -3 -7 20 5
14 6 34 3 43 -9 23 -29 43 -37 38 -3 -3 -2 1 4 7 5 7 10 16 10 20 0 14 -19 8
-32 -11z"/>
<path d="M1268 1070 c-19 -14 -24 -26 -20 -46 6 -33 26 -40 57 -20 14 9 25 12
25 6 0 -5 7 -10 15 -10 8 0 15 5 15 11 0 5 5 7 10 4 6 -4 8 -11 5 -16 -4 -5 0
-9 8 -9 8 0 17 11 19 25 3 13 1 22 -3 19 -5 -3 -9 0 -9 6 0 7 -8 9 -19 5 -16
-5 -18 -2 -14 15 9 32 -17 24 -29 -10 -11 -33 -43 -57 -53 -40 -3 6 1 13 10
16 13 6 14 8 3 15 -10 7 -9 9 5 9 9 0 17 6 17 14 0 25 -16 27 -42 6z"/>
<path d="M1658 1079 c-10 -5 -26 -30 -37 -54 -21 -47 -38 -61 -27 -22 15 49
14 58 0 64 -9 3 -21 0 -27 -7 -9 -10 -9 -11 1 -6 10 6 11 -2 6 -32 -8 -48 11
-66 36 -35 12 16 21 18 34 11 12 -7 24 -5 42 6 13 9 24 19 24 21 0 3 -11 -2
-25 -11 -23 -15 -25 -15 -25 0 0 9 4 16 10 16 5 0 14 9 19 19 14 25 -6 44 -31
30z"/>
<path d="M2086 1081 c-26 -10 -46 -62 -30 -78 19 -20 38 -15 65 15 l24 27 -26
-23 c-19 -16 -29 -20 -34 -12 -4 7 2 18 14 26 35 25 25 58 -13 45z"/>
<path d="M1486 1072 c-3 -5 -7 -20 -10 -35 -5 -31 -14 -47 -26 -47 -4 0 -4 16
0 36 6 27 5 37 -7 41 -8 3 -20 0 -26 -7 -9 -10 -9 -11 0 -6 10 5 12 -3 8 -33
-6 -46 8 -61 34 -37 10 9 23 16 29 16 6 0 16 8 21 18 9 15 10 14 11 -6 0 -29
20 -25 31 6 8 21 -2 28 -33 23 -5 0 -8 8 -8 19 0 20 -14 27 -24 12z"/>
<path d="M1268 973 c7 -3 16 -2 19 1 4 3 -2 6 -13 5 -11 0 -14 -3 -6 -6z"/>
</g>
</svg>
